<svg id="Layer_1" data-name="Layer 1" xmlns="http://www.w3.org/2000/svg" viewBox="0 0 25 25"><defs><style>.cls-1{fill:#fff;}</style></defs><title>close copy</title><path class="cls-1" d="M6,.89l-.36.36L1.25,5.6.88,6l.37.36L7.42,12.5,1.25,18.67.88,19l.37.36L5.6,23.75l.36.36.36-.36,6.17-6.17,6.17,6.17.36.36.36-.36,4.35-4.35.37-.36-.37-.37L17.58,12.5l6.17-6.17L24.12,6l-.37-.37L19.4,1.25,19,.89l-.36.36L12.5,7.42,6.33,1.25ZM6,2.34l6.17,6.17.36.36.36-.36L19,2.34,22.66,6l-6.17,6.17-.37.37.37.36L22.67,19,19,22.66l-6.17-6.17-.36-.36-.36.36L6,22.66,2.33,19l6.17-6.17.37-.36-.37-.37L2.34,6Z"/></svg>